<svg width="92" height="92" viewBox="0 0 92 92" fill="none" xmlns="http://www.w3.org/2000/svg">
<path fill-rule="evenodd" clip-rule="evenodd" d="M72.1489 31.9544C72.5339 30.7451 72.1489 29.8565 70.3161 29.8565H64.2558C62.7149 29.8565 62.0045 30.6241 61.6192 31.4706C61.6192 31.4706 58.5373 38.5449 54.1714 43.1402C52.7589 44.4704 52.1168 44.8936 51.3463 44.8936C50.9612 44.8936 50.4035 44.4704 50.4035 43.2612V31.9544C50.4035 30.5033 49.9563 29.8565 48.6721 29.8565H39.1487C38.1858 29.8565 37.6067 30.53 37.6067 31.1684C37.6067 32.544 39.7895 32.8613 40.0145 36.731V45.1356C40.0145 46.9782 39.6611 47.3123 38.8907 47.3123C36.8362 47.3123 31.8386 40.2064 28.8746 32.0753C28.2938 30.4949 27.7112 29.8565 26.1623 29.8565H20.102C18.3705 29.8565 18.0241 30.6241 18.0241 31.4706C18.0241 32.9823 20.0787 40.4798 27.5906 50.3959C32.5985 57.1678 39.6543 60.8386 46.0748 60.8386C49.9271 60.8386 50.4036 60.0233 50.4036 58.6189V53.5008C50.4036 51.8701 50.7686 51.5447 51.9885 51.5447C52.8873 51.5447 54.4282 51.9679 58.0238 55.233C62.1328 59.1027 62.8103 60.8386 65.1216 60.8386H71.1819C72.9134 60.8386 73.7792 60.0233 73.2797 58.4143C72.7332 56.8107 70.7713 54.4841 68.1681 51.7261C66.7556 50.154 64.6368 48.4611 63.9947 47.6145C63.0959 46.5262 63.3527 46.0424 63.9947 45.0751C63.9947 45.0751 71.3784 35.2799 72.1489 31.9544Z" fill="#2787F5"/>
</svg>
